# Aspose.3D Wavefront OBJ Exporter
# Copyright 2004-2024 Aspose Pty Ltd.
# File created: 03/08/2024 14:17:43

g obj_47981335

#
# object obj_47981335
#

v -0.013700004 0.08150847 -0.03070812
v -0.013749997 -0.00024692918 -0.002487776
v -0.013749997 0.0010300395 -0.002277941
v 0.013249998 0.0002469281 0.0024877754
v 0.011799996 0.0013006515 0.005857331
v 0.011799996 -0.001039862 0.0059092054
v 0.013300006 0.08200233 -0.02573257
v 0.011799996 0.083310306 -0.022425324
v 0.013249998 -0.0010300407 0.0022779403
v 0.011799996 0.0802005 -0.034015365
v 0.013300006 0.08150847 -0.03070812
v 0.011799996 0.018768037 -0.017531965
v 0.013300006 0.080297664 -0.030251358
v 0.013249998 -0.00024692918 -0.002487776
v 0.013249998 -0.0014577335 -0.0020310127
v -0.012200001 0.0013006515 0.005857331
v -0.012200001 0.083310306 -0.022425324
v -0.013749997 0.0002469281 0.0024877754
v -0.013700004 0.08200233 -0.02573257
v -0.012200001 -0.001039862 0.0059092054
v 0.011799996 -0.0032220602 0.005061458
v 0.013249998 -0.0020310136 0.0014577336
v 0.011799996 -0.0049137296 0.0034431464
v 0.012400006 -0.0046146614 0.0016476974
v 0.011799996 -0.005857331 0.0013006505
v 0.012400006 -0.0048589385 0.00063301896
v 0.012499993 0.085962765 -0.025708744
v 0.013300006 0.08321313 -0.026189333
v 0.013300006 0.08403334 -0.027190303
v 0.011799996 0.08540961 -0.02346148
v 0.013249998 -0.0022779421 -0.0010300414
v -0.012200001 -0.0034431485 -0.00491373
v -0.012200001 -0.005061454 -0.0032220595
v -0.013749997 -0.0014577335 -0.0020310127
v 0.011799996 -0.0034431485 -0.00491373
v 0.011799996 0.0061797607 -0.011656688
v 0.011799996 0.010137962 -0.014100022
v -0.013749997 -0.0010300407 0.0022779403
v -0.012200001 -0.0032220602 0.005061458
v 0.012400006 -0.004461388 0.0019020865
v 0.012499993 0.08639924 -0.026656758
v 0.012499993 0.08576305 -0.02548892
v -0.013700004 0.08321313 -0.026189333
v 0.007300002 0.06494027 -0.029920781
v -0.0076999986 0.06494027 -0.029920781
v -0.012200001 0.018768037 -0.017531965
v -0.012200001 0.0802005 -0.034015365
v -0.012200001 0.08253652 -0.034169283
v 0.011799996 0.08475361 -0.033417527
v 0.011799996 0.086514264 -0.03187455
v 0.013300006 0.08378641 -0.029678078
v 0.012499993 0.08660511 -0.028268425
v 0.013300006 0.08424317 -0.028467273
v 0.012499993 0.08664924 -0.027974727
v 0.013249998 -0.0024877735 0.00024692886
v 0.013300006 0.07972439 -0.02676261
v 0.013300006 0.08072536 -0.025942404
v 0.013300006 0.07947746 -0.029250385
v -0.012200001 -0.0059092054 -0.0010398591
v -0.012849997 -0.0047482457 -0.000987967
v 0.011799996 -0.0059092054 -0.0010398591
v 0.011799996 -0.005061454 -0.0032220595
v 0.012400006 -0.0047482457 -0.000987967
v -0.012200001 0.0143530555 -0.016067315
v -0.012200001 0.010137962 -0.014100022
v 0.011799996 0.0143530555 -0.016067315
v -0.012200001 0.0061797607 -0.011656688
v -0.013749997 -0.0020310136 0.0014577336
v 0.011799996 0.08770434 -0.027439231
v 0.012499993 0.08648621 -0.02694387
v -0.012200001 0.08540961 -0.02346148
v -0.012899998 0.085962765 -0.025708744
v -0.012200001 0.08695258 -0.02522213
v -0.013749997 0.0014577324 0.0020310117
v 0.011799996 0.08695258 -0.02522213
v 0.013300006 0.082785435 -0.030498285
v 0.011799996 0.08253652 -0.034169283
v 0.011799996 0.08755042 -0.029775249
v 0.012400006 -0.0048885695 0.00033448645
v 0.012400006 -0.004848521 -0.0007084114
v 0.013300006 0.07926763 -0.027973415
v -0.012200001 -0.005857331 0.0013006505
v -0.012849997 -0.0048885695 0.00033448645
v -0.005200001 0.008744204 -0.013311472
v -0.013749997 -0.0022779421 -0.0010300414
v -0.012899998 0.08576305 -0.02548892
v -0.013700004 0.08403334 -0.027190303
v -0.013749997 0.0022779412 0.0010300404
v -0.013749997 0.0024877726 -0.00024692787
v -0.013700004 0.08424317 -0.028467273
v -0.012200001 0.086514264 -0.03187455
v -0.012899998 0.08660511 -0.028268425
v -0.012200001 0.08755042 -0.029775249
v -0.012200001 0.08475361 -0.033417527
v -0.013700004 0.08378641 -0.029678078
v -0.013749997 0.0020310124 -0.0014577344
v -0.012849997 -0.004848521 -0.0007084114
v -0.012849997 -0.0046146614 0.0016476974
v -0.012200001 -0.0049137296 0.0034431464
v 0.0024279777 0.011480906 -0.014792304
v 0.0016000023 0.011579958 -0.014840848
v -0.0019999992 0.011579958 -0.014840848
v -0.0049564117 0.0098117 -0.013921997
v 0.0046909503 0.00946384 -0.013727816
v 0.004799997 0.008744204 -0.013311472
v -0.012899998 0.08664924 -0.027974727
v -0.012200001 0.08770434 -0.027439231
v -0.013700004 0.082785435 -0.030498285
v -0.013749997 -0.0024877735 0.00024692886
v -0.012849997 -0.0048589385 0.00063301896
v -0.012849997 -0.004461388 0.0019020865
v 0.0043705604 0.010142864 -0.014102615
v 0.003863429 0.010733202 -0.0144147985
v -0.0042627403 0.010733821 -0.014415117
v -0.003224584 0.011358801 -0.014731991
v -0.012899998 0.08639924 -0.026656758
v 0.0031999995 0.011191306 -0.014648415
v -0.012899998 0.08648621 -0.02694387
# 118 vertices

vn -0.99999934 0.00019721713 -0.0012001874
vn 0.9195122 0.008709544 0.39296493
vn 0.92126197 0.12680559 0.36769116
vn 0.9249691 0.12349784 0.35941696
vn 0.9270358 -0.060801197 0.37001064
vn 0.92048174 -0.10127243 -0.37743515
vn 0.9997921 -0.0071966723 -0.019077335
vn 0.9997921 -0.0071960827 -0.019075627
vn -0.9155786 0.13110794 0.38016644
vn -0.92127275 0.1274024 0.3674575
vn -0.90954214 0.009209186 0.41550967
vn 0.919357 -0.14246598 0.36672354
vn 0.925468 -0.24010214 0.2930185
vn 0.9209715 -0.2693377 0.28154677
vn 0.8826831 -0.45691437 0.10999908
vn 0.8568918 -0.47176826 0.20777696
vn 0.94990194 0.24175256 0.19809608
vn 0.92138255 0.13718061 0.3636422
vn 0.9157127 0.17784974 0.36033273
vn 0.9999994 -0.0008529269 -0.00069889077
vn -0.91115654 -0.29775578 -0.28484258
vn 0.923862 -0.21963008 -0.3134352
vn 0.94474876 -0.1721808 -0.2789329
vn -0.90937054 -0.15063637 0.3877551
vn -0.9178746 -0.06435181 0.39161843
vn 0.9211919 -0.2711507 0.2790753
vn 0.93853307 -0.29566896 0.17814495
vn 0.8918088 -0.38750985 0.2334806
vn 0.9475654 0.2902737 0.13364564
vn 0.84404415 0.39692456 0.36061102
vn 0.9469946 0.23777376 0.21602058
vn 0.91696125 0.19155389 0.34998453
vn -0.9213832 0.13718002 0.36364067
vn 5.59251E-07 -0.25915086 -0.9658369
vn -5.5924994E-07 -0.25915086 -0.9658368
vn -0.9204824 -0.101271994 -0.37743354
vn -0.9143043 -0.026629142 -0.40415174
vn 0.91705984 0.26281044 -0.2998865
vn 0.9165601 0.35357386 -0.18682377
vn 0.9366725 0.32766724 -0.1236075
vn 0.9447677 0.3241027 -0.048698235
vn 0.9461568 -0.30287465 0.114255406
vn 0.94243807 -0.32509252 0.07826385
vn 0.9999998 -0.0005412085 0.00020416372
vn 0.99999976 -0.0004303815 0.00052523374
vn 0.99999976 -0.0004303817 0.0005252329
vn 0.99999934 -0.00019727644 0.001200547
vn 0.99999934 -0.00019727701 0.0012005453
vn 0.9999994 -0.00085292594 -0.00069889415
vn 0.99999976 -0.00064846245 -0.00010655518
vn -0.8611219 -0.47389454 -0.18410075
vn 0.8780675 -0.44605955 -0.17328727
vn 0.92477745 -0.3216633 -0.2032719
vn 0.92097163 -0.2815473 -0.26933706
vn 0.92546785 -0.2930184 -0.24010302
vn -0.96853834 -0.10525216 -0.22551173
vn -0.97958225 -0.07096041 -0.1881043
vn -0.979256 -0.0638014 -0.1923205
vn -0.98229736 -0.060586046 -0.17726025
vn 0.9723051 -0.098845005 -0.21178384
vn 0.9820636 -0.06655072 -0.17641495
vn 0.97925574 -0.063801706 -0.1923213
vn 0.98402363 -0.05862931 -0.16810758
vn -0.9143566 -0.23236051 -0.33160287
vn -0.93758905 -0.18265979 -0.2959089
vn -0.9161363 -0.25407198 0.31006715
vn 0.84922487 0.5215497 0.0824811
vn 0.82508373 0.54074603 0.16380036
vn 0.9494239 0.3005126 0.091029964
vn 0.95098937 0.30513138 0.05013895
vn 0.9507334 0.30620414 0.048425045
vn -0.9157135 0.177849 0.36033124
vn -0.8356859 0.41304153 0.3619747
vn -0.9997923 0.007193902 0.019069836
vn -0.99979234 0.0071937502 0.019069394
vn 0.8356859 0.41304153 0.3619747
vn 0.815051 0.548705 0.18605031
vn 0.8442376 0.4868466 0.22415024
vn 0.91936576 0.24934107 -0.30429527
vn 0.91430354 -0.026629252 -0.4041534
vn 0.92239094 0.062631086 -0.38114595
vn 0.9147697 0.12972295 -0.3825811
vn 0.9077414 0.37620163 -0.18568198
vn 0.8238941 0.5655176 -0.037262272
vn 0.855934 0.511345 -0.07683245
vn 0.9425276 -0.33249447 0.033001702
vn 0.85517824 -0.5182068 0.011485346
vn 0.87014425 -0.49038753 0.048673563
vn 0.938533 -0.32491925 -0.116547145
vn 0.9461568 -0.31942508 -0.052487843
vn 0.9424381 -0.33413434 -0.012831077
vn 0.879758 -0.44750404 -0.16051793
vn 0.8727341 -0.4878362 -0.01873337
vn 0.9999998 -0.0005412084 0.00020416112
vn 0.99999976 -0.00064846233 -0.00010655483
vn -0.83591115 -0.54873 0.012161851
vn -0.0087271575 -0.5252492 -0.8509037
vn -0.91613615 -0.31006706 -0.25407284
vn -0.9155514 -0.3372924 -0.21908765
vn -0.9469955 0.23777182 0.21601872
vn -0.8440442 0.39692444 0.36061108
vn -0.9169618 0.19155148 0.34998432
vn -0.9499028 0.24175051 0.19809443
vn -0.9999994 0.0008526739 0.000698692
vn -0.9999994 0.00085267803 0.00069869484
vn -0.99999976 0.0006482694 0.0001065236
vn -0.99999976 0.00064826815 0.000106522566
vn -0.90774137 0.37620163 -0.18568198
vn -0.9170606 0.26280934 -0.29988524
vn -0.91656095 0.35357174 -0.18682389
vn -0.9366736 0.32766458 -0.123606496
vn -0.99999976 0.00043025322 -0.0005250773
vn -0.9999998 0.00054104725 -0.00020410267
vn -0.9999998 0.0005410476 -0.00020410199
vn -0.86299384 -0.47554713 -0.17057687
vn -0.8552252 -0.51787484 -0.019886885
vn -0.93183243 -0.34157932 -0.12252289
vn -0.83778983 -0.49967772 0.22006889
vn 0.0036131772 -0.41556254 -0.9095574
vn 0.006332471 -0.42292106 -0.90614444
vn 0 -0.4400803 -0.8979584
vn -0.00042556194 -0.49638888 -0.86810017
vn -0.0010168423 -0.49628702 -0.868158
vn 0.0001389649 -0.48447526 -0.874805
vn 0 -0.47898504 -0.8778231
vn 0 -0.50077754 -0.865576
vn 0.0021376708 -0.5005337 -0.86571443
vn 0.008727159 -0.5252492 -0.85090375
vn -0.8238941 0.5655176 -0.037262272
vn -0.855934 0.511345 -0.07683245
vn -0.94476855 0.3241 -0.048697807
vn -0.9193665 0.24934009 -0.30429393
vn -0.9147705 0.12972243 -0.38257954
vn -0.92239165 0.06263082 -0.38114437
vn -0.99999934 0.00019721885 -0.0012001893
vn -0.99999976 0.00043025258 -0.0005250792
vn -0.9361203 -0.35142103 -0.0134949
vn -0.9402087 -0.33609185 -0.05522647
vn -0.9402087 -0.3186778 0.120216966
vn -0.8523667 -0.5203875 0.05165126
vn -0.8662362 -0.48575637 0.1169426
vn -0.9362186 -0.34969988 0.034709595
vn -0.93612033 -0.34191144 0.0823129
vn -0.8763788 -0.41252947 0.2485553
vn -0.93183243 -0.3108292 0.18727934
vn -0.9099583 -0.28666773 0.29966235
vn -0.91149265 -0.28295812 0.29852286
vn 0 -0.46771795 -0.88387775
vn 2.0150989E-07 -0.4674793 -0.88400406
vn -9.774545E-07 -0.46746078 -0.88401383
vn -9.028314E-08 -0.46747947 -0.88400394
vn -3.7966143E-05 -0.44144833 -0.89728665
vn -0.0016691787 -0.45000425 -0.89302486
vn -0.0049193376 -0.41955343 -0.9077173
vn -0.006276817 -0.42292118 -0.9061447
vn -0.815051 0.548705 0.18605031
vn -0.8442376 0.4868466 0.22415024
vn -0.9475662 0.29027125 0.13364448
vn 5.3260537E-05 -0.4448427 -0.8956087
vn 0.0038890198 -0.43661913 -0.89963806
vn 0.0014148544 -0.45267385 -0.89167506
vn 2.9419712E-07 -0.4543008 -0.89084834
vn -0.00017923629 -0.45197505 -0.89203054
vn -0.84922487 0.52154964 0.08248114
vn -0.82508373 0.54074603 0.16380036
vn -0.9494248 0.30051008 0.09102917
vn -0.9509903 0.3051288 0.05013853
vn -0.95073426 0.30620155 0.04842463
vn 0 0.32602635 0.9453607
vn 0 0.022158157 0.9997545
vn 0 -0.69126564 0.7226007
vn 0 -0.36211783 0.9321323
vn 0 -0.9997545 0.022158194
vn 0 -0.9151728 0.4030619
vn 0 -0.2591509 -0.9658368
vn 0 -0.2591509 -0.9658369
vn 0 -0.25915068 -0.96583694
vn 0 -0.2591507 -0.96583694
vn 0 -0.93213195 -0.3621189
vn 0 -0.7226021 -0.69126415
vn 0 -0.31487104 -0.9491344
vn 0 -0.5738576 -0.81895506
vn 0 0.4425955 0.89672136
vn 0 0.7520681 0.6590854
vn 0 0.9470404 0.32111457
vn 0 -0.06574641 -0.99783635
vn 0 0.3211158 -0.94703996
vn 0 0.6590864 -0.75206727
vn 0 0.9978363 -0.065748
vn 0 0.89672154 -0.4425952
vn 1 0 0
vn 0 -0.4044797 -0.91454697
vn 0 -0.40447968 -0.91454697
vn 0 -0.5421973 -0.84025127
vn -1 0 0
# 195 vertex normals

s 1
f 1//1 2//1 3//1
f 4//2 5//2 6//2
f 5//3 7//3 8//3
f 7//4 5//4 4//4
f 4//5 6//5 9//5
f 10//6 11//6 12//6
f 13//7 14//7 11//7
f 14//8 13//8 15//8
f 16//9 17//9 18//9
f 19//10 18//10 17//10
f 18//11 20//11 16//11
f 9//12 6//12 21//12
f 9//13 21//13 22//13
f 23//14 22//14 21//14
f 24//15 25//15 26//15
f 24//16 23//16 25//16
f 27//17 28//17 29//17
f 7//18 28//18 8//18
f 8//19 28//19 30//19
f 13//20 31//20 15//20
f 32//21 33//21 34//21
f 35//22 36//22 15//22
f 36//23 37//23 15//23
f 20//24 38//24 39//24
f 20//25 18//25 38//25
f 23//26 40//26 22//26
f 22//27 40//27 24//27
f 24//28 40//28 23//28
f 41//29 27//29 29//29
f 30//30 42//30 27//30
f 42//31 28//31 27//31
f 28//32 42//32 30//32
f 43//33 19//33 17//33
f 44//34 10//34 12//34
f 45//35 46//35 47//35
f 1//36 47//36 46//36
f 48//37 47//37 1//37
f 49//38 50//38 51//38
f 50//39 52//39 51//39
f 51//40 52//40 53//40
f 53//41 52//41 54//41
f 24//42 55//42 22//42
f 24//43 26//43 55//43
f 55//44 56//44 22//44
f 22//45 57//45 9//45
f 56//46 57//46 22//46
f 57//47 7//47 4//47
f 9//48 57//48 4//48
f 13//49 58//49 31//49
f 31//50 58//50 55//50
f 33//51 59//51 60//51
f 61//52 62//52 63//52
f 63//53 62//53 31//53
f 35//54 15//54 62//54
f 31//55 62//55 15//55
f 64//56 65//56 34//56
f 2//57 64//57 34//57
f 1//58 46//58 64//58
f 1//59 64//59 2//59
f 37//60 66//60 15//60
f 15//61 66//61 14//61
f 11//62 66//62 12//62
f 14//63 66//63 11//63
f 34//64 67//64 32//64
f 65//65 67//65 34//65
f 38//66 68//66 39//66
f 69//67 70//67 54//67
f 41//68 70//68 69//68
f 29//69 70//69 41//69
f 53//70 70//70 29//70
f 54//71 70//71 53//71
f 17//72 71//72 43//72
f 72//73 71//73 73//73
f 74//74 18//74 19//74
f 43//75 74//75 19//75
f 30//76 27//76 75//76
f 41//77 69//77 75//77
f 41//78 75//78 27//78
f 76//79 49//79 51//79
f 10//80 77//80 11//80
f 76//81 11//81 77//81
f 76//82 77//82 49//82
f 78//83 52//83 50//83
f 54//84 78//84 69//84
f 52//85 78//85 54//85
f 55//86 26//86 79//86
f 61//87 79//87 25//87
f 25//88 79//88 26//88
f 31//89 80//89 63//89
f 55//90 80//90 31//90
f 79//91 80//91 55//91
f 63//92 80//92 61//92
f 61//93 80//93 79//93
f 55//94 81//94 56//94
f 58//95 81//95 55//95
f 82//96 83//96 59//96
f 67//97 65//97 84//97
f 33//98 85//98 34//98
f 60//99 85//99 33//99
f 43//100 86//100 72//100
f 86//101 71//101 72//101
f 71//102 86//102 43//102
f 43//103 72//103 87//103
f 74//104 87//104 88//104
f 74//105 43//105 87//105
f 88//106 87//106 89//106
f 89//107 87//107 90//107
f 91//108 92//108 93//108
f 94//109 95//109 91//109
f 92//110 91//110 95//110
f 92//111 95//111 90//111
f 96//112 95//112 3//112
f 89//113 95//113 96//113
f 90//114 95//114 89//114
f 60//115 59//115 97//115
f 83//116 97//116 59//116
f 85//117 60//117 97//117
f 98//118 82//118 99//118
f 66//119 100//119 101//119
f 66//120 37//120 100//120
f 101//121 100//121 102//121
f 84//122 103//122 104//122
f 103//123 84//123 65//123
f 104//124 103//124 37//124
f 37//125 103//125 65//125
f 84//126 104//126 105//126
f 37//127 105//127 104//127
f 36//128 105//128 37//128
f 106//129 107//129 93//129
f 92//130 106//130 93//130
f 90//131 106//131 92//131
f 94//132 108//132 95//132
f 108//133 94//133 48//133
f 108//134 48//134 1//134
f 3//135 108//135 1//135
f 95//136 108//136 3//136
f 83//137 109//137 97//137
f 97//138 109//138 85//138
f 98//139 68//139 109//139
f 83//140 82//140 110//140
f 98//141 110//141 82//141
f 110//142 109//142 83//142
f 109//143 110//143 98//143
f 98//144 99//144 111//144
f 98//145 111//145 68//145
f 39//146 111//146 99//146
f 68//147 111//147 39//147
f 65//148 112//148 37//148
f 112//149 113//149 37//149
f 114//150 113//150 65//150
f 65//151 113//151 112//151
f 100//152 115//152 102//152
f 115//153 114//153 65//153
f 102//154 115//154 64//154
f 64//155 115//155 65//155
f 107//156 116//156 73//156
f 73//157 116//157 72//157
f 87//158 72//158 116//158
f 115//159 100//159 117//159
f 100//160 37//160 117//160
f 113//161 117//161 37//161
f 117//162 113//162 114//162
f 115//163 117//163 114//163
f 106//164 118//164 107//164
f 116//165 107//165 118//165
f 116//166 118//166 87//166
f 87//167 118//167 90//167
f 106//168 90//168 118//168
f 16//169 5//169 17//169
f 17//169 5//169 8//169
f 5//170 16//170 20//170
f 5//170 20//170 6//170
f 99//171 23//171 21//171
f 99//171 21//171 39//171
f 20//172 21//172 6//172
f 21//172 20//172 39//172
f 82//173 59//173 61//173
f 25//173 82//173 61//173
f 25//174 23//174 82//174
f 99//174 82//174 23//174
f 44//175 12//175 46//175
f 45//176 44//176 46//176
f 44//177 45//177 47//177
f 44//178 47//178 10//178
f 59//179 62//179 61//179
f 33//179 62//179 59//179
f 35//180 62//180 32//180
f 32//180 62//180 33//180
f 12//181 66//181 46//181
f 66//181 64//181 46//181
f 35//182 32//182 67//182
f 36//182 35//182 67//182
f 8//183 71//183 17//183
f 30//183 71//183 8//183
f 71//184 30//184 75//184
f 71//184 75//184 73//184
f 75//185 107//185 73//185
f 75//185 69//185 107//185
f 47//186 77//186 10//186
f 77//186 47//186 48//186
f 94//187 77//187 48//187
f 77//187 94//187 49//187
f 91//188 50//188 94//188
f 49//188 94//188 50//188
f 107//189 69//189 78//189
f 107//189 78//189 93//189
f 91//190 78//190 50//190
f 91//190 93//190 78//190
f 76//191 51//191 81//191
f 28//191 7//191 81//191
f 57//191 56//191 81//191
f 11//191 81//191 13//191
f 28//191 81//191 29//191
f 53//191 81//191 51//191
f 53//191 29//191 81//191
f 57//191 81//191 7//191
f 58//191 13//191 81//191
f 76//191 81//191 11//191
f 66//192 102//192 64//192
f 101//193 102//193 66//193
f 67//194 105//194 36//194
f 84//194 105//194 67//194
f 109//195 2//195 34//195
f 2//195 109//195 3//195
f 96//195 109//195 89//195
f 68//195 38//195 109//195
f 96//195 3//195 109//195
f 88//195 89//195 109//195
f 38//195 18//195 109//195
f 74//195 88//195 109//195
f 74//195 109//195 18//195
f 85//195 109//195 34//195
#232 polygons

